<svg xmlns="http://www.w3.org/2000/svg" version="1.1" width="1103.75" height="667.922" id="svg2"><g transform="translate(332 -275.395)" id="layer1"><path d="m552.048-.538-84.852 128.794h169.2L552.048-.538" transform="translate(-332 275.934)" id="path3012" style="fill:#c93;fill-opacity:1;stroke:none"/><path d="m382.848 256.546 84.348-128.29 84.852 128.29h-169.2" transform="translate(-332 275.934)" id="path3014" style="fill:#c93;fill-opacity:1;stroke:none"/><path d="M552.048 256.546h169.706l-85.358-128.29z" transform="translate(-332 275.934)" id="path3016" style="fill:#c93;fill-opacity:1;stroke:none"/><path d="m0 39.286 41.429 125L330 207.857v30.714L70.714 267.143l51.429 100.714 215-80.714 13.571 26.428L186.43 437.857l70.714 50 120-133.571 18.571 17.857-58.571 139.286 70.714 14.285 25-127.143c22.246 3.027 54.919 0 54.037-30.714-.43-14.968-7.41-33.317-33.235-41.285C342.228 292.192 365 152.857 400 95c-41.836 33.256-44.812 50.043-56.429 65.714C324.464 155.625 0 39.286 0 39.286z" transform="translate(-332 275.934)" id="path3082" style="fill:#c93;fill-opacity:1;stroke:none"/><path d="m771.75 315.22-41.429 125-288.571 43.57v30.715l259.286 28.571-51.429 100.715-215-80.715-13.571 26.429L585.32 713.791l-70.714 50-120-133.572-18.571 17.857 58.571 139.286-70.714 14.286-25-127.143c-22.246 3.027-54.919 0-54.037-30.714.43-14.968 7.41-33.318 33.235-41.285 111.431-34.381 88.659-173.715 53.659-231.572 41.836 33.256 44.812 50.043 56.429 65.714 19.107-5.09 343.571-121.429 343.571-121.429z" id="path3082-1" style="fill:#c93;fill-opacity:1;stroke:none"/><path d="m452.5 601.786-11.786 35.357 45.893-43.572s4.822-9.285-5.178-13.928h-16.596c-3.226-.614-.748-6.462-.748-6.462s23.024-37.12 35.29-57.11c3.189-14.862-20.014-28.214-32.18-14.732-14.695 29.592-34.516 78.304-37.552 78.304H343.57s-16.428 2.946-6.428 16.071c10 13.125 66.428 54.643 66.428 54.643l-21.517-48.571z" transform="translate(-332 275.934)" id="path3120" style="fill:#c93;fill-opacity:1;stroke:none"/><path d="m319.308 877.72 11.785 35.356-45.893-43.57s-4.821-9.287 5.179-13.93h16.596c3.225-.613.748-6.462.748-6.462s-23.025-37.12-35.29-57.109c-3.19-14.862 20.014-28.214 32.179-14.732 14.696 29.592 34.517 78.303 37.553 78.303h86.071s16.429 2.947 6.429 16.072c-10 13.125-66.429 54.643-66.429 54.643l21.518-48.572z" id="path3120-7" style="fill:#c93;fill-opacity:1;stroke:none"/><path d="M220.048 572.128c-.757 15.152-20.978 52.53-26.28 58.093-4.26 4.468-10.1 13.567-21.97 44.282-11.869 30.714-6.963 32.173-31.562 50.156 101.164 46.52 43.437 93.714 43.437 104.562 12.67 32.03 36.375 96.72 36.375 96.72s23.674-64.69 36.344-96.72c0-10.848-57.727-58.042 43.438-104.562-24.6-17.983-19.694-19.442-31.563-50.156-11.87-30.715-17.71-39.814-21.969-44.282-5.303-5.563-25.492-42.941-26.25-58.093z" id="path3156" style="fill:#c93;fill-opacity:1;stroke:none"/></g></svg>